<svg xmlns="http://www.w3.org/2000/svg" xmlns:xlink="http://www.w3.org/1999/xlink" x="0px" y="0px" width="64px" height="64px" viewBox="0 0 64 64" stroke-width="2"><g stroke-width="2" transform="translate(0, 0)"><polyline points="18 53 5.904 40.903 6.296 41.295" fill="none" style="stroke: var(--primary)" stroke-linecap="square" stroke-miterlimit="10" stroke-width="2" data-color="color-2" stroke-linejoin="miter"></polyline><polyline points="31 26 43.072 38.073 42.217 37.218" fill="none" style="stroke: var(--primary)" stroke-linecap="square" stroke-miterlimit="10" stroke-width="2" data-color="color-2" stroke-linejoin="miter"></polyline><polyline points="33 38 20.884 25.885 21.177 26.178" fill="none" style="stroke: var(--primary)" stroke-linecap="square" stroke-miterlimit="10" stroke-width="2" data-color="color-2" stroke-linejoin="miter"></polyline><polyline points="57.779 22.778 58.098 23.096 46 11" fill="none" style="stroke: var(--primary)" stroke-linecap="square" stroke-miterlimit="10" stroke-width="2" data-color="color-2" stroke-linejoin="miter"></polyline><path d="M28,43.471A33.689,33.689,0,0,0,34,44,10,10,0,0,0,44,34c0-10-4-14-4-24a9.838,9.838,0,0,1,2.051-6" fill="none" style="stroke: var(--gray-400)" stroke-linecap="square" stroke-miterlimit="10" stroke-width="2" stroke-linejoin="miter"></path><path d="M16,40.534A33.55,33.55,0,0,0,10,40a9.909,9.909,0,0,0-6,2.045" fill="none" style="stroke: var(--gray-400)" stroke-linecap="square" stroke-miterlimit="10" stroke-width="2" stroke-linejoin="miter"></path><path d="M36,20.529A33.689,33.689,0,0,0,30,20,10,10,0,0,0,20,30c0,10,4,14,4,24a9.838,9.838,0,0,1-2.051,6" fill="none" style="stroke: var(--gray-400)" stroke-linecap="square" stroke-miterlimit="10" stroke-width="2" stroke-linejoin="miter"></path><path d="M48,23.466A33.55,33.55,0,0,0,54,24a9.909,9.909,0,0,0,6-2.045" fill="none" style="stroke: var(--gray-400)" stroke-linecap="square" stroke-miterlimit="10" stroke-width="2" stroke-linejoin="miter"></path></g></svg>