<svg xmlns="http://www.w3.org/2000/svg" xmlns:xlink="http://www.w3.org/1999/xlink" x="0px" y="0px" width="64px" height="64px" viewBox="0 0 64 64" stroke-width="2"><g stroke-width="2" transform="translate(0, 0)"><path d="M11.056,20.549C5.472,23.455,2,27.51,2,32c0,8.837,13.431,16,30,16s30-7.163,30-16S48.569,16,32,16a55.293,55.293,0,0,0-7.3.48" fill="none" style="stroke: var(--gray-400)" stroke-linecap="square" stroke-miterlimit="10" stroke-width="2" stroke-linejoin="miter"></path><path d="M43.451,52.944C40.545,58.528,36.49,62,32,62c-8.837,0-16-13.431-16-30S23.163,2,32,2,48,15.431,48,32a55.293,55.293,0,0,1-.48,7.3" fill="none" style="stroke: var(--gray-400)" stroke-linecap="square" stroke-miterlimit="10" stroke-width="2" stroke-linejoin="miter"></path><circle cx="32" cy="32" r="8" fill="none" style="stroke: var(--primary)" stroke-linecap="square" stroke-miterlimit="10" stroke-width="2" data-color="color-2" stroke-linejoin="miter"></circle></g></svg>