<svg xmlns="http://www.w3.org/2000/svg" xmlns:xlink="http://www.w3.org/1999/xlink" x="0px" y="0px" width="64px" height="64px" viewBox="0 0 64 64"><g transform="translate(0, 0)"><path d="M26,49A23,23,0,1,1,49,26,23.026,23.026,0,0,1,26,49ZM26,5A21,21,0,1,0,47,26,21.024,21.024,0,0,0,26,5Z" style="fill: var(--gray-400)"></path><path data-color="color-2" d="M11,27a1,1,0,0,1-1-1A16.019,16.019,0,0,1,26,10a1,1,0,0,1,0,2A14.015,14.015,0,0,0,12,26,1,1,0,0,1,11,27Z" style="fill: var(--primary)"></path><path data-color="color-2" d="M60.121,55.879l-9-9a2.989,2.989,0,0,0-3.405-.577l-3.009-3.009a1,1,0,0,0-1.414,1.414L46.3,47.716a2.989,2.989,0,0,0,.577,3.405l9,9a3,3,0,0,0,4.242-4.242Z" style="fill: var(--primary)"></path></g></svg>